<svg width="44" height="44" viewBox="0 0 44 44" fill="none" xmlns="http://www.w3.org/2000/svg">
<path d="M22.4404 0.839844C34.3143 0.840075 43.9404 10.4659 43.9404 22.3398C43.9404 34.2138 34.3144 43.8396 22.4404 43.8398C10.5663 43.8398 0.94043 34.214 0.94043 22.3398C0.940496 10.4658 10.5663 0.839844 22.4404 0.839844ZM22.4404 5.83984C13.3278 5.83984 5.9405 13.2272 5.94043 22.3398C5.94043 31.4525 13.3277 38.8398 22.4404 38.8398C31.5529 38.8396 38.9404 31.4524 38.9404 22.3398C38.9404 13.2273 31.5529 5.84007 22.4404 5.83984ZM22.4404 12.3398C23.8209 12.3401 24.9404 13.4594 24.9404 14.8398V19.8398H29.9404C31.3209 19.8401 32.4404 20.9594 32.4404 22.3398C32.4404 23.7204 31.3209 24.8396 29.9404 24.8398H24.9404V29.8496C24.9404 31.2302 23.8209 32.3493 22.4404 32.3496C21.0597 32.3496 19.9404 31.2303 19.9404 29.8496V24.8398H14.9404C13.5597 24.8398 12.4404 23.7206 12.4404 22.3398C12.4405 20.9592 13.5598 19.8398 14.9404 19.8398H19.9404V14.8398C19.9405 13.4592 21.0598 12.3398 22.4404 12.3398Z" fill="#3A4651"/>
</svg>
