<svg width="43" height="47" viewBox="0 0 43 47" fill="none" xmlns="http://www.w3.org/2000/svg">
<path d="M21.311 27.0107C26.0512 26.9053 30.6952 28.3615 34.5268 31.1543C38.3584 33.9472 41.1655 37.9227 42.5161 42.4678C42.9093 43.7913 42.155 45.1829 40.8315 45.5762C39.5081 45.9691 38.1163 45.215 37.7231 43.8916C36.6848 40.3979 34.5268 37.3422 31.5815 35.1953C28.636 33.0484 25.0663 31.9288 21.4223 32.0098C17.7783 32.0908 14.2616 33.3678 11.4145 35.6436C8.56747 37.9193 6.54736 41.068 5.66547 44.6045C5.33145 45.9441 3.97477 46.7596 2.63519 46.4258C1.2958 46.0916 0.48013 44.735 0.813904 43.3955C1.96103 38.795 4.58892 34.6988 8.29242 31.7383C11.9961 28.7779 16.5707 27.1162 21.311 27.0107ZM21.478 -0.00976562C23.1031 -0.0113427 24.7126 0.307602 26.2143 0.928711C27.716 1.5499 29.0807 2.46118 30.2299 3.61035C31.3791 4.75954 32.2904 6.12419 32.9116 7.62598C33.5327 9.12771 33.8517 10.7372 33.85 12.3623V12.7598C33.85 15.7408 32.6659 18.6001 30.558 20.708C28.4501 22.8159 25.5908 24 22.6098 24H20.7504C17.7695 24 14.9101 22.8159 12.8022 20.708C10.6943 18.6001 9.51019 15.7408 9.51019 12.7598V11.96C9.51021 8.78538 10.7713 5.74089 13.0161 3.49609C15.2606 1.25156 18.3047 -0.00850039 21.4789 -0.00878906L21.478 -0.00976562ZM21.1342 4.99902C19.4116 5.08453 17.7766 5.8059 16.5512 7.03125C15.2441 8.33835 14.5102 10.1114 14.5102 11.96V12.7598C14.5102 14.4145 15.1674 16.0017 16.3373 17.1719C17.5076 18.3421 19.0955 19 20.7504 19H22.6098C24.2647 19 25.8517 18.3421 27.0219 17.1719C28.1921 16.0017 28.85 14.4147 28.85 12.7598V12.3574C28.851 11.3898 28.6613 10.4313 28.2914 9.53711C27.9216 8.64287 27.379 7.8298 26.6948 7.14551C26.0105 6.46121 25.1974 5.91873 24.3032 5.54883C23.4089 5.17896 22.4505 4.9893 21.4828 4.99023H21.4799L21.1342 4.99902Z" fill="#3A4651"/>
</svg>
