<svg width="43" height="47" viewBox="0 0 43 47" fill="none" xmlns="http://www.w3.org/2000/svg">
<path d="M21.311 27.0107C26.0512 26.9053 30.6952 28.3615 34.5268 31.1543C38.3584 33.9472 41.1655 37.9227 42.5161 42.4678C42.9093 43.7913 42.155 45.1829 40.8315 45.5762C39.5081 45.9691 38.1163 45.215 37.7231 43.8916C36.6848 40.3979 34.5268 37.3422 31.5815 35.1953C28.636 33.0484 25.0663 31.9288 21.4223 32.0098C17.7783 32.0908 14.2616 33.3678 11.4145 35.6436C8.56747 37.9193 6.54736 41.068 5.66547 44.6045C5.33145 45.9441 3.97477 46.7596 2.63519 46.4258C1.2958 46.0916 0.48013 44.735 0.813904 43.3955C1.96103 38.795 4.58892 34.6988 8.29242 31.7383C11.9961 28.7779 16.5707 27.1162 21.311 27.0107ZM21.478 -0.00976562C23.1031 -0.0113421 24.7126 0.307601 26.2143 0.928711C27.716 1.5499 29.0807 2.46118 30.2299 3.61035C31.3791 4.75954 32.2904 6.12419 32.9116 7.62598C33.5327 9.12771 33.8517 10.7372 33.85 12.3623V12.7598C33.85 15.7408 32.6659 18.6001 30.558 20.708C28.4501 22.8159 25.5908 24 22.6098 24H20.7504L20.1928 23.9863C17.4147 23.8485 14.7784 22.6841 12.8022 20.708C10.6943 18.6001 9.51019 15.7408 9.51019 12.7598V11.96C9.51021 8.78538 10.7713 5.74089 13.0161 3.49609C15.2606 1.25156 18.3047 -0.00850039 21.4789 -0.00878906L21.478 -0.00976562Z" fill="#3A4651"/>
<path d="M21.311 27.0107C26.0512 26.9053 30.6952 28.3615 34.5268 31.1543C38.3584 33.9472 41.1655 37.9227 42.5161 42.4678C42.9093 43.7913 42.155 45.1829 40.8315 45.5762C39.5081 45.9691 38.1163 45.215 37.7231 43.8916C36.6848 40.3979 34.5268 37.3422 31.5815 35.1953C28.636 33.0484 25.0663 31.9288 21.4223 32.0098C17.7783 32.0908 14.2616 33.3678 11.4145 35.6436C8.56747 37.9193 6.54736 41.068 5.66547 44.6045C5.33145 45.9441 3.97477 46.7596 2.63519 46.4258C1.2958 46.0916 0.48013 44.735 0.813904 43.3955C1.96103 38.795 4.58892 34.6988 8.29242 31.7383C11.9961 28.7779 16.5707 27.1162 21.311 27.0107ZM21.478 -0.00976562C23.1031 -0.0113421 24.7126 0.307601 26.2143 0.928711C27.716 1.5499 29.0807 2.46118 30.2299 3.61035C31.3791 4.75954 32.2904 6.12419 32.9116 7.62598C33.5327 9.12771 33.8517 10.7372 33.85 12.3623V12.7598C33.85 15.7408 32.6659 18.6001 30.558 20.708C28.4501 22.8159 25.5908 24 22.6098 24H20.7504L20.1928 23.9863C17.4147 23.8485 14.7784 22.6841 12.8022 20.708C10.6943 18.6001 9.51019 15.7408 9.51019 12.7598V11.96C9.51021 8.78538 10.7713 5.74089 13.0161 3.49609C15.2606 1.25156 18.3047 -0.00850039 21.4789 -0.00878906L21.478 -0.00976562Z" fill="#3A4651" fill-opacity="0.2"/>
</svg>
